<svg width="64" height="64" viewBox="0 0 64 64" fill="none" xmlns="http://www.w3.org/2000/svg">
    <g clip-path="url(#clip0)">
        <path d="M4.75702 30.0505H10.6523C10.6457 29.183 10.8361 28.3249 11.2096 27.5386C11.5613 26.7992 12.0392 26.1243 12.6226 25.543H12.9444C12.9444 25.8204 12.8738 26.1132 12.8502 26.4137C12.8267 26.7142 12.811 26.9453 12.8031 27.2458C12.7953 27.5463 12.8031 27.8391 12.8031 28.1165C12.8031 28.5249 12.8031 28.8871 12.8031 29.1953C12.8031 29.5035 12.8031 29.7809 12.8502 30.0197C12.8696 30.2446 12.9011 30.4684 12.9444 30.6901H0V30.3742L1.97032 29.8887V8.98433L0 8.47578V8.15216H6.71949V8.47578L4.75702 8.95351V30.0505Z"
              fill="#1E1E1E"/>
        <path d="M26.0772 24.1098H19.3577L17.7171 29.5805L19.8522 30.3511V30.667H14.9147V30.3511L17.0498 29.5805L23.4553 7.70526H23.9499L30.8342 29.9119L32.7967 30.3973V30.7132H25.9045V30.3973L27.8748 29.9119L26.0772 24.1098ZM19.5225 23.5011H25.9045L22.6075 12.8524L19.5225 23.5011Z"
              fill="#1E1E1E"/>
        <path d="M39.6811 8.18298C40.9108 8.1602 42.1374 8.3107 43.3235 8.62989C44.2459 8.88042 45.1135 9.29574 45.8825 9.85503C46.521 10.3265 47.0373 10.9389 47.3897 11.6426C47.716 12.3222 47.8849 13.0643 47.8842 13.8155C47.8928 14.3793 47.7998 14.9402 47.6095 15.4722C47.4338 15.9333 47.1905 16.3668 46.8873 16.759C46.5985 17.1367 46.2453 17.4626 45.8433 17.7221C45.4699 17.9698 45.076 18.1863 44.6658 18.3694C43.6678 18.7893 42.6077 19.0494 41.5258 19.1399C42.4302 19.2318 43.3146 19.4606 44.1477 19.8179C44.8567 20.141 45.5003 20.5874 46.0474 21.1355C46.6619 21.7714 47.0335 22.5962 47.0993 23.4702L47.7508 29.0951C47.7633 29.4074 47.8668 29.7095 48.0491 29.9658C48.1112 30.0453 48.1907 30.11 48.2818 30.1554C48.3728 30.2007 48.473 30.2255 48.575 30.2278C48.699 30.2223 48.8189 30.1822 48.9204 30.1122C49.0426 30.0314 49.1581 29.9412 49.2658 29.8425C49.384 29.7165 49.4819 29.5736 49.5563 29.4187L49.886 29.7423C49.7562 30.0341 49.5665 30.2964 49.3286 30.5129C49.0893 30.7071 48.8254 30.8702 48.5436 30.9983C48.188 31.153 47.8021 31.2293 47.4132 31.2218C46.7458 31.2503 46.093 31.0238 45.5921 30.5899C45.1511 30.217 44.8706 29.6938 44.8071 29.1259L44.1477 23.5011C44.085 22.8698 43.9426 22.2486 43.7238 21.6518C43.5624 21.1847 43.2938 20.7603 42.9388 20.4113C42.5672 20.0548 42.1072 19.7998 41.6043 19.6715C40.9854 19.5077 40.3456 19.4324 39.7047 19.4481H38.3702V29.9042L40.3405 30.3896V30.7055H33.621V30.3896L35.5835 29.9042V8.98433L33.621 8.47578V8.15216L39.6811 8.18298ZM44.7443 13.8155C44.7893 13.1431 44.6965 12.4686 44.4714 11.8321C44.2462 11.1955 43.8932 10.6096 43.4334 10.1093C42.9236 9.6579 42.3268 9.31144 41.6783 9.09042C41.0297 8.8694 40.3426 8.7783 39.6576 8.82252H38.3702V18.8394H39.6811C40.3662 18.8836 41.0533 18.7925 41.7018 18.5715C42.3504 18.3505 42.9472 18.004 43.4569 17.5526C43.9181 17.0477 44.2699 16.4561 44.4912 15.8137C44.7125 15.1713 44.7986 14.4915 44.7443 13.8155Z"
              fill="#1E1E1E"/>
        <path d="M3.04575 38.0949C3.02528 38.9175 3.30352 39.7205 3.83074 40.3602C4.39536 41.0355 5.05634 41.6272 5.79321 42.117C6.5782 42.6487 7.44168 43.1803 8.36797 43.6966C9.29897 44.1986 10.1772 44.7896 10.9898 45.4611C11.7745 46.1152 12.4383 46.8972 12.9523 47.7727C13.5033 48.755 13.7744 49.865 13.7373 50.9858C13.7379 51.7786 13.5806 52.5639 13.2741 53.2974C12.979 54.0118 12.5383 54.6594 11.9789 55.2006C11.4113 55.7425 10.7386 56.167 10.0007 56.4488C9.20586 56.7554 8.35851 56.9097 7.50448 56.9034C6.78766 56.9181 6.07209 56.8378 5.37717 56.6646C4.86579 56.5306 4.37091 56.3419 3.90139 56.1021C3.48266 55.9023 3.09644 55.6426 2.75531 55.3316C2.55827 55.6722 2.30945 55.9814 2.01742 56.2485C1.75851 56.5059 1.43699 56.6941 1.08329 56.7956H0.588745C0.588745 56.4951 0.635844 56.1714 0.659394 55.8324C0.682944 55.4934 0.698643 55.2391 0.722193 54.9001C0.745743 54.561 0.722193 54.222 0.722193 53.8984C0.722193 53.5748 0.722193 53.1741 0.722193 52.8196C0.722193 52.4652 0.675094 52.1416 0.659394 51.8411C0.643694 51.5406 0.612295 51.163 0.588745 50.8394H1.08329C1.43762 52.3611 2.18974 53.7659 3.26555 54.9155C3.78721 55.3825 4.39957 55.7413 5.06592 55.9703C5.73227 56.1994 6.43888 56.294 7.14339 56.2485C7.73509 56.2718 8.32527 56.1742 8.87657 55.962C9.42787 55.7498 9.92828 55.4275 10.3461 55.0156C11.1932 54.0879 11.6332 52.8696 11.5707 51.6253C11.5997 50.7874 11.3212 49.967 10.7857 49.3137C10.2158 48.6428 9.55254 48.054 8.81541 47.5646C8.03042 47.0253 7.17479 46.5013 6.2485 46.0236C5.33502 45.5231 4.47278 44.9373 3.67374 44.2745C2.88894 43.6185 2.22278 42.8369 1.70343 41.9629C1.15143 40.9781 0.880246 39.8655 0.91844 38.7421C0.914946 38.0351 1.05922 37.3349 1.34233 36.6848C1.62059 36.0513 2.02339 35.4779 2.52766 34.9973C3.03566 34.5086 3.6355 34.1213 4.29388 33.857C4.99046 33.5734 5.73775 33.4293 6.49185 33.4332C7.08116 33.4221 7.668 33.5107 8.22667 33.6952C8.66922 33.839 9.0975 34.0221 9.5062 34.2422C9.89321 34.462 10.2562 34.7202 10.5895 35.0128C10.7725 34.6759 11.0112 34.3712 11.296 34.1112C11.5536 33.8522 11.8755 33.6637 12.2301 33.5642H12.7168C12.6775 33.8878 12.6461 34.2114 12.6226 34.5273C12.599 34.8432 12.6226 35.1515 12.5755 35.4828C12.5284 35.8141 12.5755 36.1377 12.5755 36.4613C12.5755 36.785 12.5755 37.1856 12.5755 37.5401C12.5755 37.8945 12.5755 38.2182 12.6226 38.5187C12.6697 38.8192 12.6775 39.1967 12.7168 39.5203H12.2301C11.8738 38.015 11.1521 36.6166 10.1263 35.4443C9.7084 34.9942 9.19737 34.637 8.62743 34.3965C8.0575 34.156 7.4418 34.0377 6.82154 34.0496C6.31974 34.0369 5.82081 34.1277 5.35701 34.3162C4.89321 34.5047 4.47487 34.7866 4.12904 35.1437C3.7592 35.5366 3.4729 35.9979 3.28689 36.5006C3.10088 37.0034 3.01891 37.5375 3.04575 38.0717"
              fill="#1E1E1E"/>
        <path d="M27.4744 55.7939C27.464 54.926 27.6546 54.0671 28.0317 53.282C28.3806 52.5429 28.8559 51.8679 29.4369 51.2863H29.7665C29.7194 51.5637 29.6881 51.8565 29.6645 52.157C29.641 52.4575 29.6645 52.6964 29.6174 52.9969C29.5703 53.2974 29.6174 53.5825 29.6174 53.8599C29.6174 54.2682 29.6174 54.6304 29.6174 54.9386C29.6174 55.2468 29.6174 55.5242 29.6645 55.7631C29.6823 55.9886 29.7164 56.2126 29.7665 56.4334H16.1627V56.1175L18.1252 55.6321V34.7123L16.1627 34.2345V33.9032H29.4369C29.3891 34.1267 29.3576 34.3533 29.3427 34.5813C29.3427 34.8124 29.3034 35.0898 29.2877 35.398C29.272 35.7062 29.2877 36.0684 29.2877 36.4768C29.2877 36.8851 29.2877 37.0701 29.2877 37.3629C29.2877 37.6557 29.2877 37.9254 29.3427 38.1796C29.3976 38.4339 29.3976 38.7729 29.4369 39.0503H29.1072C28.523 38.4713 28.0473 37.7957 27.702 37.0547C27.3294 36.2708 27.139 35.4154 27.1447 34.5504H20.9119V44.2052H24.0518L25.5276 41.3157H25.8573V47.7727H25.5276L24.0518 44.8755H20.9119V55.817L27.4744 55.7939Z"
              fill="#1E1E1E"/>
        <path d="M46.9186 35.0359L44.7835 34.2345V33.9109H49.7053V34.2345L47.5702 35.0359V56.757H47.0835L35.9367 36.6463V55.3084L38.064 56.1175V56.4334H33.15V56.1175L35.2773 55.3084V34.874L33.15 34.2345V33.9109H37.5773L46.9186 50.8086V35.0359Z"
              fill="#1E1E1E"/>
        <path d="M49.0102 -0.00116226L48.5283 0.107788L63.5198 63.9993L64.0017 63.8903L49.0102 -0.00116226Z"
              fill="#1E1E1E"/>
    </g>
    <defs>
        <clipPath id="clip0">
            <rect width="64" height="64" fill="white"/>
        </clipPath>
    </defs>
</svg>
